<svg width="942" height="942" viewBox="0 0 942 942" fill="none" xmlns="http://www.w3.org/2000/svg">
<rect width="942" height="942" fill="url(#paint0_linear_3_66)"/>
<path d="M459.181 383.611C459.8 383.445 460.397 383.21 460.989 382.966C464.655 381.456 468.772 381.451 472.442 382.956C473.001 383.186 473.565 383.406 474.147 383.567L559.605 407.058C561.688 407.631 563.172 409.472 563.272 411.629C563.757 422.107 563.999 435.715 558.957 438.181L474.956 479.276C470.696 481.359 465.704 481.316 461.482 479.159L378.417 436.717C373.6 434.255 373.959 420.008 374.038 410.404C374.057 408.114 375.587 406.094 377.799 405.499L459.181 383.611Z" fill="url(#paint1_linear_3_66)"/>
<path d="M460.112 364.531C464.261 362.502 469.112 362.489 473.272 364.496L558.919 405.801C564.582 408.532 564.605 416.588 558.957 419.351L474.956 460.445C470.696 462.529 465.704 462.486 461.482 460.328L378.417 417.886C372.889 415.062 372.959 407.139 378.536 404.412L460.112 364.531Z" fill="url(#paint2_linear_3_66)"/>
<path d="M570.19 481.611C570.808 481.445 571.406 481.21 571.998 480.966C575.663 479.456 579.781 479.451 583.45 480.956C584.009 481.186 584.573 481.406 585.155 481.567L670.614 505.058C672.696 505.631 674.18 507.472 674.28 509.629C674.766 520.107 675.007 533.715 669.965 536.181L585.964 577.276C581.704 579.359 576.712 579.316 572.49 577.159L489.425 534.717C484.608 532.255 484.967 518.008 485.047 508.404C485.065 506.114 486.595 504.094 488.807 503.499L570.19 481.611Z" fill="url(#paint3_linear_3_66)"/>
<path d="M571.12 462.531C575.269 460.502 580.12 460.489 584.28 462.496L669.928 503.801C675.59 506.532 675.613 514.588 669.966 517.351L585.964 558.445C581.705 560.529 576.713 560.486 572.49 558.328L489.425 515.886C483.898 513.062 483.967 505.139 489.544 502.412L571.12 462.531Z" fill="url(#paint4_linear_3_66)"/>
<path d="M352.181 481.611C352.8 481.445 353.397 481.21 353.989 480.966C357.655 479.456 361.772 479.451 365.442 480.956C366.001 481.186 366.565 481.406 367.147 481.567L452.605 505.058C454.688 505.631 456.172 507.472 456.272 509.629C456.757 520.107 456.999 533.715 451.957 536.181L367.956 577.276C363.696 579.359 358.704 579.316 354.482 577.159L271.417 534.717C266.6 532.255 266.959 518.008 267.038 508.404C267.057 506.114 268.587 504.094 270.799 503.499L352.181 481.611Z" fill="url(#paint5_linear_3_66)"/>
<path d="M353.112 462.531C357.261 460.502 362.112 460.489 366.272 462.496L451.919 503.801C457.582 506.532 457.605 514.588 451.957 517.351L367.956 558.445C363.696 560.529 358.704 560.486 354.482 558.328L271.417 515.886C265.889 513.062 265.959 505.139 271.536 502.412L353.112 462.531Z" fill="url(#paint6_linear_3_66)"/>
<defs>
<linearGradient id="paint0_linear_3_66" x1="471" y1="0" x2="471" y2="942" gradientUnits="userSpaceOnUse">
<stop stop-color="#001839"/>
<stop offset="1" stop-color="#00001E"/>
</linearGradient>
<linearGradient id="paint1_linear_3_66" x1="374.038" y1="417.056" x2="563.848" y2="417.056" gradientUnits="userSpaceOnUse">
<stop stop-color="#D9F3FF"/>
<stop offset="0.445" stop-color="#DAF1FD"/>
<stop offset="0.57" stop-color="#8ED8FC"/>
<stop offset="1" stop-color="#80D5FD"/>
</linearGradient>
<linearGradient id="paint2_linear_3_66" x1="468.746" y1="363" x2="468.746" y2="461.978" gradientUnits="userSpaceOnUse">
<stop stop-color="#FDFDFD"/>
<stop offset="1" stop-color="#FDFFFD"/>
</linearGradient>
<linearGradient id="paint3_linear_3_66" x1="485.046" y1="515.056" x2="674.856" y2="515.056" gradientUnits="userSpaceOnUse">
<stop stop-color="#D9F3FF"/>
<stop offset="0.445" stop-color="#DAF1FD"/>
<stop offset="0.57" stop-color="#8ED8FC"/>
<stop offset="1" stop-color="#80D5FD"/>
</linearGradient>
<linearGradient id="paint4_linear_3_66" x1="579.754" y1="461" x2="579.754" y2="559.978" gradientUnits="userSpaceOnUse">
<stop stop-color="#FDFDFD"/>
<stop offset="1" stop-color="#FDFFFD"/>
</linearGradient>
<linearGradient id="paint5_linear_3_66" x1="267.038" y1="515.056" x2="456.848" y2="515.056" gradientUnits="userSpaceOnUse">
<stop stop-color="#D9F3FF"/>
<stop offset="0.445" stop-color="#DAF1FD"/>
<stop offset="0.57" stop-color="#8ED8FC"/>
<stop offset="1" stop-color="#80D5FD"/>
</linearGradient>
<linearGradient id="paint6_linear_3_66" x1="361.746" y1="461" x2="361.746" y2="559.978" gradientUnits="userSpaceOnUse">
<stop stop-color="#FDFDFD"/>
<stop offset="1" stop-color="#FDFFFD"/>
</linearGradient>
</defs>
</svg>
