<svg width="855" height="216" viewBox="0 0 855 216" fill="none" xmlns="http://www.w3.org/2000/svg">
<path d="M546.616 200.394C542.502 200.394 538.807 197.874 537.306 194.043L473.349 30.8605C470.779 24.3014 475.615 17.2115 482.66 17.2115H499.165C503.336 17.2115 507.069 19.8007 508.531 23.7076L558.983 158.57C560.234 161.914 557.762 165.477 554.192 165.477V165.477C550.616 165.477 548.143 161.901 549.407 158.556L600.336 23.6789C601.805 19.787 605.531 17.2115 609.691 17.2115H625.642C632.703 17.2115 637.54 24.3305 634.939 30.8947L570.29 194.077C568.779 197.89 565.094 200.394 560.993 200.394H546.616Z" fill="white"/>
<path d="M670.597 200.394C665.074 200.394 660.597 195.917 660.597 190.394V84.5375C660.597 79.0147 665.074 74.5375 670.597 74.5375H684.81C690.333 74.5375 694.81 79.0147 694.81 84.5375V190.394C694.81 195.917 690.333 200.394 684.81 200.394H670.597ZM677.703 54.2128C672.174 54.2128 667.595 52.3888 663.966 48.7408C660.338 44.9191 658.523 40.2287 658.523 34.6699C658.523 29.2847 660.338 24.6812 663.966 20.8595C667.595 17.0378 672.174 15.1269 677.703 15.1269C683.405 15.1269 687.984 17.0378 691.44 20.8595C695.069 24.6812 696.883 29.2847 696.883 34.6699C696.883 40.2287 695.069 44.9191 691.44 48.7408C687.984 52.3888 683.405 54.2128 677.703 54.2128Z" fill="white"/>
<path d="M794.35 203C785.365 203 777.244 201.089 769.986 197.267C762.729 193.446 756.941 188.234 752.621 181.633C748.301 175.032 745.968 167.649 745.623 159.484V114.666C745.968 106.501 748.301 99.2051 752.621 92.7776C757.113 86.1764 762.988 81.0518 770.246 77.4038C777.503 73.7558 785.538 71.9318 794.35 71.9318C805.927 71.9318 816.295 74.7981 825.453 80.5307C834.611 86.2633 841.781 94.0805 846.965 103.982C852.322 113.884 855 125.089 855 137.596C855 149.93 852.322 161.048 846.965 170.95C841.781 180.851 834.611 188.668 825.453 194.401C816.295 200.134 805.927 203 794.35 203ZM788.648 171.471C794.868 171.471 800.311 170.081 804.977 167.301C809.815 164.348 813.53 160.353 816.122 155.315C818.887 150.104 820.269 144.111 820.269 137.336C820.269 130.734 818.887 124.915 816.122 119.877C813.53 114.666 809.815 110.67 804.977 107.891C800.139 104.938 794.609 103.461 788.389 103.461C782.168 103.461 776.639 104.938 771.801 107.891C767.135 110.67 763.42 114.666 760.656 119.877C758.064 124.915 756.768 130.734 756.768 137.336C756.768 144.111 758.064 150.104 760.656 155.315C763.42 160.353 767.222 164.348 772.06 167.301C776.898 170.081 782.427 171.471 788.648 171.471ZM734.888 200.394C729.365 200.394 724.888 195.917 724.888 190.394V22C724.888 16.4772 729.365 12 734.888 12H748.841C754.364 12 758.841 16.4772 758.841 22V104.611C758.841 105.233 758.783 105.853 758.668 106.464L753.478 133.976C753.254 135.163 753.247 136.382 753.458 137.572L758.429 165.655C758.531 166.23 758.582 166.814 758.582 167.398V190.394C758.582 195.917 754.105 200.394 748.582 200.394H734.888Z" fill="white"/>
<path d="M193.112 1.53077C197.261 -0.497812 202.112 -0.51081 206.272 1.49552L291.919 42.8007C297.582 45.5316 297.605 53.5884 291.957 56.351L207.956 97.4453C203.696 99.529 198.704 99.4856 194.482 97.3281L111.417 54.8863C105.889 52.0619 105.959 44.1386 111.536 41.4122L193.112 1.53077Z" fill="url(#paint0_linear_3_5)"/>
<path d="M304.12 99.5308C308.269 97.5022 313.12 97.4892 317.28 99.4955L402.928 140.801C408.59 143.532 408.613 151.588 402.966 154.351L318.964 195.445C314.705 197.529 309.713 197.486 305.49 195.328L222.425 152.886C216.898 150.062 216.967 142.139 222.544 139.412L304.12 99.5308Z" fill="url(#paint1_linear_3_5)"/>
<path d="M86.1115 99.5308C90.2609 97.5022 95.1116 97.4892 99.2718 99.4955L184.919 140.801C190.582 143.532 190.605 151.588 184.957 154.351L100.956 195.445C96.6964 197.529 91.7044 197.486 87.4818 195.328L4.41708 152.886C-1.11071 150.062 -1.0408 142.139 4.53597 139.412L86.1115 99.5308Z" fill="url(#paint2_linear_3_5)"/>
<defs>
<linearGradient id="paint0_linear_3_5" x1="201.746" y1="0" x2="201.746" y2="98.9777" gradientUnits="userSpaceOnUse">
<stop stop-color="#FDFDFD"/>
<stop offset="1" stop-color="#FDFFFD"/>
</linearGradient>
<linearGradient id="paint1_linear_3_5" x1="312.754" y1="98" x2="312.754" y2="196.978" gradientUnits="userSpaceOnUse">
<stop stop-color="#FDFDFD"/>
<stop offset="1" stop-color="#FDFFFD"/>
</linearGradient>
<linearGradient id="paint2_linear_3_5" x1="94.7458" y1="98" x2="94.7458" y2="196.978" gradientUnits="userSpaceOnUse">
<stop stop-color="#FDFDFD"/>
<stop offset="1" stop-color="#FDFFFD"/>
</linearGradient>
</defs>
</svg>
