<svg width="408" height="216" viewBox="0 0 408 216" fill="none" xmlns="http://www.w3.org/2000/svg">
<path d="M193.112 1.53077C197.261 -0.497812 202.112 -0.51081 206.272 1.49552L291.919 42.8007C297.582 45.5316 297.605 53.5884 291.957 56.351L207.956 97.4453C203.696 99.529 198.704 99.4856 194.482 97.3281L111.417 54.8863C105.889 52.0619 105.959 44.1386 111.536 41.4122L193.112 1.53077Z" fill="url(#paint0_linear_3_50)"/>
<path d="M304.12 99.5308C308.269 97.5022 313.12 97.4892 317.28 99.4955L402.928 140.801C408.59 143.532 408.613 151.588 402.966 154.351L318.964 195.445C314.705 197.529 309.713 197.486 305.49 195.328L222.425 152.886C216.898 150.062 216.967 142.139 222.544 139.412L304.12 99.5308Z" fill="url(#paint1_linear_3_50)"/>
<path d="M86.1115 99.5308C90.2609 97.5022 95.1116 97.4892 99.2718 99.4955L184.919 140.801C190.582 143.532 190.605 151.588 184.957 154.351L100.956 195.445C96.6964 197.529 91.7044 197.486 87.4818 195.328L4.41708 152.886C-1.11071 150.062 -1.0408 142.139 4.53597 139.412L86.1115 99.5308Z" fill="url(#paint2_linear_3_50)"/>
<defs>
<linearGradient id="paint0_linear_3_50" x1="201.746" y1="0" x2="201.746" y2="98.9777" gradientUnits="userSpaceOnUse">
<stop stop-color="#FDFDFD"/>
<stop offset="1" stop-color="#FDFFFD"/>
</linearGradient>
<linearGradient id="paint1_linear_3_50" x1="312.754" y1="98" x2="312.754" y2="196.978" gradientUnits="userSpaceOnUse">
<stop stop-color="#FDFDFD"/>
<stop offset="1" stop-color="#FDFFFD"/>
</linearGradient>
<linearGradient id="paint2_linear_3_50" x1="94.7458" y1="98" x2="94.7458" y2="196.978" gradientUnits="userSpaceOnUse">
<stop stop-color="#FDFDFD"/>
<stop offset="1" stop-color="#FDFFFD"/>
</linearGradient>
</defs>
</svg>
