<svg width="1611" height="942" viewBox="0 0 1611 942" fill="none" xmlns="http://www.w3.org/2000/svg">
<rect width="1611" height="942" fill="url(#paint0_linear_3_2)"/>
<path d="M924.616 563.394C920.502 563.394 916.807 560.874 915.306 557.043L851.349 393.861C848.779 387.301 853.615 380.211 860.66 380.211H877.165C881.336 380.211 885.069 382.801 886.531 386.708L936.983 521.57C938.234 524.914 935.762 528.477 932.192 528.477C928.616 528.477 926.144 524.901 927.407 521.556L978.336 386.679C979.805 382.787 983.531 380.211 987.691 380.211H1003.64C1010.7 380.211 1015.54 387.331 1012.94 393.895L948.29 557.077C946.779 560.89 943.094 563.394 938.993 563.394H924.616Z" fill="white"/>
<path d="M924.616 563.394C920.502 563.394 916.807 560.874 915.306 557.043L851.349 393.861C848.779 387.301 853.615 380.211 860.66 380.211H877.165C881.336 380.211 885.069 382.801 886.531 386.708L936.983 521.57C938.234 524.914 935.762 528.477 932.192 528.477C928.616 528.477 926.144 524.901 927.407 521.556L978.336 386.679C979.805 382.787 983.531 380.211 987.691 380.211H1003.64C1010.7 380.211 1015.54 387.331 1012.94 393.895L948.29 557.077C946.779 560.89 943.094 563.394 938.993 563.394H924.616Z" fill="url(#paint1_linear_3_2)"/>
<path d="M1048.6 563.394C1043.07 563.394 1038.6 558.917 1038.6 553.394V447.538C1038.6 442.015 1043.07 437.538 1048.6 437.538H1062.81C1068.33 437.538 1072.81 442.015 1072.81 447.538V553.394C1072.81 558.917 1068.33 563.394 1062.81 563.394H1048.6ZM1055.7 417.213C1050.17 417.213 1045.6 415.389 1041.97 411.741C1038.34 407.919 1036.52 403.229 1036.52 397.67C1036.52 392.285 1038.34 387.681 1041.97 383.859C1045.6 380.038 1050.17 378.127 1055.7 378.127C1061.41 378.127 1065.98 380.038 1069.44 383.859C1073.07 387.681 1074.88 392.285 1074.88 397.67C1074.88 403.229 1073.07 407.919 1069.44 411.741C1065.98 415.389 1061.41 417.213 1055.7 417.213Z" fill="white"/>
<path d="M1048.6 563.394C1043.07 563.394 1038.6 558.917 1038.6 553.394V447.538C1038.6 442.015 1043.07 437.538 1048.6 437.538H1062.81C1068.33 437.538 1072.81 442.015 1072.81 447.538V553.394C1072.81 558.917 1068.33 563.394 1062.81 563.394H1048.6ZM1055.7 417.213C1050.17 417.213 1045.6 415.389 1041.97 411.741C1038.34 407.919 1036.52 403.229 1036.52 397.67C1036.52 392.285 1038.34 387.681 1041.97 383.859C1045.6 380.038 1050.17 378.127 1055.7 378.127C1061.41 378.127 1065.98 380.038 1069.44 383.859C1073.07 387.681 1074.88 392.285 1074.88 397.67C1074.88 403.229 1073.07 407.919 1069.44 411.741C1065.98 415.389 1061.41 417.213 1055.7 417.213Z" fill="url(#paint2_linear_3_2)"/>
<path d="M1172.35 566C1163.36 566 1155.24 564.089 1147.99 560.267C1140.73 556.446 1134.94 551.234 1130.62 544.633C1126.3 538.032 1123.97 530.649 1123.62 522.484V477.666C1123.97 469.501 1126.3 462.205 1130.62 455.778C1135.11 449.176 1140.99 444.052 1148.25 440.404C1155.5 436.756 1163.54 434.932 1172.35 434.932C1183.93 434.932 1194.29 437.798 1203.45 443.531C1212.61 449.263 1219.78 457.08 1224.97 466.982C1230.32 476.884 1233 488.089 1233 500.596C1233 512.93 1230.32 524.048 1224.97 533.95C1219.78 543.851 1212.61 551.668 1203.45 557.401C1194.29 563.134 1183.93 566 1172.35 566ZM1166.65 534.471C1172.87 534.471 1178.31 533.081 1182.98 530.301C1187.81 527.348 1191.53 523.353 1194.12 518.315C1196.89 513.104 1198.27 507.111 1198.27 500.336C1198.27 493.734 1196.89 487.915 1194.12 482.877C1191.53 477.666 1187.81 473.67 1182.98 470.891C1178.14 467.938 1172.61 466.461 1166.39 466.461C1160.17 466.461 1154.64 467.938 1149.8 470.891C1145.14 473.67 1141.42 477.666 1138.66 482.877C1136.06 487.915 1134.77 493.734 1134.77 500.336C1134.77 507.111 1136.06 513.104 1138.66 518.315C1141.42 523.353 1145.22 527.348 1150.06 530.301C1154.9 533.081 1160.43 534.471 1166.65 534.471ZM1112.89 563.394C1107.36 563.394 1102.89 558.917 1102.89 553.394V385C1102.89 379.477 1107.36 375 1112.89 375H1126.84C1132.36 375 1136.84 379.477 1136.84 385V467.611C1136.84 468.233 1136.78 468.853 1136.67 469.464L1131.48 496.976C1131.25 498.163 1131.25 499.382 1131.46 500.572L1136.43 528.655C1136.53 529.23 1136.58 529.814 1136.58 530.398V553.394C1136.58 558.917 1132.1 563.394 1126.58 563.394H1112.89Z" fill="white"/>
<path d="M1172.35 566C1163.36 566 1155.24 564.089 1147.99 560.267C1140.73 556.446 1134.94 551.234 1130.62 544.633C1126.3 538.032 1123.97 530.649 1123.62 522.484V477.666C1123.97 469.501 1126.3 462.205 1130.62 455.778C1135.11 449.176 1140.99 444.052 1148.25 440.404C1155.5 436.756 1163.54 434.932 1172.35 434.932C1183.93 434.932 1194.29 437.798 1203.45 443.531C1212.61 449.263 1219.78 457.08 1224.97 466.982C1230.32 476.884 1233 488.089 1233 500.596C1233 512.93 1230.32 524.048 1224.97 533.95C1219.78 543.851 1212.61 551.668 1203.45 557.401C1194.29 563.134 1183.93 566 1172.35 566ZM1166.65 534.471C1172.87 534.471 1178.31 533.081 1182.98 530.301C1187.81 527.348 1191.53 523.353 1194.12 518.315C1196.89 513.104 1198.27 507.111 1198.27 500.336C1198.27 493.734 1196.89 487.915 1194.12 482.877C1191.53 477.666 1187.81 473.67 1182.98 470.891C1178.14 467.938 1172.61 466.461 1166.39 466.461C1160.17 466.461 1154.64 467.938 1149.8 470.891C1145.14 473.67 1141.42 477.666 1138.66 482.877C1136.06 487.915 1134.77 493.734 1134.77 500.336C1134.77 507.111 1136.06 513.104 1138.66 518.315C1141.42 523.353 1145.22 527.348 1150.06 530.301C1154.9 533.081 1160.43 534.471 1166.65 534.471ZM1112.89 563.394C1107.36 563.394 1102.89 558.917 1102.89 553.394V385C1102.89 379.477 1107.36 375 1112.89 375H1126.84C1132.36 375 1136.84 379.477 1136.84 385V467.611C1136.84 468.233 1136.78 468.853 1136.67 469.464L1131.48 496.976C1131.25 498.163 1131.25 499.382 1131.46 500.572L1136.43 528.655C1136.53 529.23 1136.58 529.814 1136.58 530.398V553.394C1136.58 558.917 1132.1 563.394 1126.58 563.394H1112.89Z" fill="url(#paint3_linear_3_2)"/>
<path d="M570.181 383.611C570.8 383.445 571.397 383.21 571.989 382.966C575.655 381.456 579.772 381.451 583.442 382.956C584.001 383.186 584.565 383.406 585.147 383.567L670.605 407.058C672.688 407.631 674.172 409.472 674.272 411.629C674.757 422.107 674.999 435.715 669.957 438.181L585.956 479.276C581.696 481.359 576.704 481.316 572.482 479.159L489.417 436.717C484.6 434.255 484.959 420.008 485.038 410.404C485.057 408.114 486.587 406.094 488.799 405.499L570.181 383.611Z" fill="url(#paint4_linear_3_2)"/>
<path d="M571.112 364.531C575.261 362.502 580.112 362.489 584.272 364.496L669.919 405.801C675.582 408.532 675.605 416.588 669.957 419.351L585.956 460.445C581.696 462.529 576.704 462.486 572.482 460.328L489.417 417.886C483.889 415.062 483.959 407.139 489.536 404.412L571.112 364.531Z" fill="url(#paint5_linear_3_2)"/>
<path d="M681.19 481.611C681.808 481.445 682.406 481.21 682.998 480.966C686.663 479.456 690.781 479.451 694.45 480.956C695.009 481.186 695.573 481.406 696.155 481.567L781.614 505.058C783.696 505.631 785.18 507.472 785.28 509.629C785.766 520.107 786.007 533.715 780.965 536.181L696.964 577.276C692.704 579.359 687.712 579.316 683.49 577.159L600.425 534.717C595.608 532.255 595.967 518.008 596.047 508.404C596.065 506.114 597.595 504.094 599.807 503.499L681.19 481.611Z" fill="url(#paint6_linear_3_2)"/>
<path d="M682.12 462.531C686.269 460.502 691.12 460.489 695.28 462.496L780.928 503.801C786.59 506.532 786.613 514.588 780.966 517.351L696.964 558.445C692.705 560.529 687.713 560.486 683.49 558.328L600.425 515.886C594.898 513.062 594.967 505.139 600.544 502.412L682.12 462.531Z" fill="url(#paint7_linear_3_2)"/>
<path d="M463.181 481.611C463.8 481.445 464.397 481.21 464.989 480.966C468.655 479.456 472.772 479.451 476.442 480.956C477.001 481.186 477.565 481.406 478.147 481.567L563.605 505.058C565.688 505.631 567.172 507.472 567.272 509.629C567.757 520.107 567.999 533.715 562.957 536.181L478.956 577.276C474.696 579.359 469.704 579.316 465.482 577.159L382.417 534.717C377.6 532.255 377.959 518.008 378.038 508.404C378.057 506.114 379.587 504.094 381.799 503.499L463.181 481.611Z" fill="url(#paint8_linear_3_2)"/>
<path d="M464.112 462.531C468.261 460.502 473.112 460.489 477.272 462.496L562.919 503.801C568.582 506.532 568.605 514.588 562.957 517.351L478.956 558.445C474.696 560.529 469.704 560.486 465.482 558.328L382.417 515.886C376.889 513.062 376.959 505.139 382.536 502.412L464.112 462.531Z" fill="url(#paint9_linear_3_2)"/>
<defs>
<linearGradient id="paint0_linear_3_2" x1="805.5" y1="0" x2="805.5" y2="942" gradientUnits="userSpaceOnUse">
<stop stop-color="#001839"/>
<stop offset="1" stop-color="#00001E"/>
</linearGradient>
<linearGradient id="paint1_linear_3_2" x1="1056.58" y1="375" x2="1056.21" y2="563.027" gradientUnits="userSpaceOnUse">
<stop stop-color="#D9F3FF"/>
<stop offset="0.830711" stop-color="#DAF1FD"/>
<stop offset="0.882803" stop-color="#DAF1FD"/>
<stop offset="0.997231" stop-color="#8ED8FC"/>
<stop offset="1" stop-color="#80D5FD"/>
</linearGradient>
<linearGradient id="paint2_linear_3_2" x1="1056.58" y1="375" x2="1056.21" y2="563.027" gradientUnits="userSpaceOnUse">
<stop stop-color="#D9F3FF"/>
<stop offset="0.830711" stop-color="#DAF1FD"/>
<stop offset="0.882803" stop-color="#DAF1FD"/>
<stop offset="0.997231" stop-color="#8ED8FC"/>
<stop offset="1" stop-color="#80D5FD"/>
</linearGradient>
<linearGradient id="paint3_linear_3_2" x1="1056.58" y1="375" x2="1056.21" y2="563.027" gradientUnits="userSpaceOnUse">
<stop stop-color="#D9F3FF"/>
<stop offset="0.830711" stop-color="#DAF1FD"/>
<stop offset="0.882803" stop-color="#DAF1FD"/>
<stop offset="0.997231" stop-color="#8ED8FC"/>
<stop offset="1" stop-color="#80D5FD"/>
</linearGradient>
<linearGradient id="paint4_linear_3_2" x1="485.038" y1="417.056" x2="674.848" y2="417.056" gradientUnits="userSpaceOnUse">
<stop stop-color="#D9F3FF"/>
<stop offset="0.445" stop-color="#DAF1FD"/>
<stop offset="0.57" stop-color="#8ED8FC"/>
<stop offset="1" stop-color="#80D5FD"/>
</linearGradient>
<linearGradient id="paint5_linear_3_2" x1="579.746" y1="363" x2="579.746" y2="461.978" gradientUnits="userSpaceOnUse">
<stop stop-color="#FDFDFD"/>
<stop offset="1" stop-color="#FDFFFD"/>
</linearGradient>
<linearGradient id="paint6_linear_3_2" x1="596.046" y1="515.056" x2="785.856" y2="515.056" gradientUnits="userSpaceOnUse">
<stop stop-color="#D9F3FF"/>
<stop offset="0.445" stop-color="#DAF1FD"/>
<stop offset="0.57" stop-color="#8ED8FC"/>
<stop offset="1" stop-color="#80D5FD"/>
</linearGradient>
<linearGradient id="paint7_linear_3_2" x1="690.754" y1="461" x2="690.754" y2="559.978" gradientUnits="userSpaceOnUse">
<stop stop-color="#FDFDFD"/>
<stop offset="1" stop-color="#FDFFFD"/>
</linearGradient>
<linearGradient id="paint8_linear_3_2" x1="378.038" y1="515.056" x2="567.848" y2="515.056" gradientUnits="userSpaceOnUse">
<stop stop-color="#D9F3FF"/>
<stop offset="0.445" stop-color="#DAF1FD"/>
<stop offset="0.57" stop-color="#8ED8FC"/>
<stop offset="1" stop-color="#80D5FD"/>
</linearGradient>
<linearGradient id="paint9_linear_3_2" x1="472.746" y1="461" x2="472.746" y2="559.978" gradientUnits="userSpaceOnUse">
<stop stop-color="#FDFDFD"/>
<stop offset="1" stop-color="#FDFFFD"/>
</linearGradient>
</defs>
</svg>
