<svg width="942" height="942" viewBox="0 0 942 942" fill="none" xmlns="http://www.w3.org/2000/svg">
<rect width="942" height="942" fill="#01011F"/>
<path d="M460.112 364.531C464.261 362.502 469.112 362.489 473.272 364.496L558.919 405.801C564.582 408.532 564.605 416.588 558.957 419.351L474.956 460.445C470.696 462.529 465.704 462.486 461.482 460.328L378.417 417.886C372.889 415.062 372.959 407.139 378.536 404.412L460.112 364.531Z" fill="url(#paint0_linear_3_28)"/>
<path d="M571.12 462.531C575.269 460.502 580.12 460.489 584.28 462.496L669.928 503.801C675.59 506.532 675.613 514.588 669.966 517.351L585.964 558.445C581.705 560.529 576.713 560.486 572.49 558.328L489.425 515.886C483.898 513.062 483.967 505.139 489.544 502.412L571.12 462.531Z" fill="url(#paint1_linear_3_28)"/>
<path d="M353.112 462.531C357.261 460.502 362.112 460.489 366.272 462.496L451.919 503.801C457.582 506.532 457.605 514.588 451.957 517.351L367.956 558.445C363.696 560.529 358.704 560.486 354.482 558.328L271.417 515.886C265.889 513.062 265.959 505.139 271.536 502.412L353.112 462.531Z" fill="url(#paint2_linear_3_28)"/>
<defs>
<linearGradient id="paint0_linear_3_28" x1="468.746" y1="363" x2="468.746" y2="461.978" gradientUnits="userSpaceOnUse">
<stop stop-color="#FDFDFD"/>
<stop offset="1" stop-color="#FDFFFD"/>
</linearGradient>
<linearGradient id="paint1_linear_3_28" x1="579.754" y1="461" x2="579.754" y2="559.978" gradientUnits="userSpaceOnUse">
<stop stop-color="#FDFDFD"/>
<stop offset="1" stop-color="#FDFFFD"/>
</linearGradient>
<linearGradient id="paint2_linear_3_28" x1="361.746" y1="461" x2="361.746" y2="559.978" gradientUnits="userSpaceOnUse">
<stop stop-color="#FDFDFD"/>
<stop offset="1" stop-color="#FDFFFD"/>
</linearGradient>
</defs>
</svg>
