<svg width="408" height="216" viewBox="0 0 408 216" fill="none" xmlns="http://www.w3.org/2000/svg">
<path d="M192.181 20.6113C192.8 20.4449 193.397 20.2101 193.989 19.9661C197.655 18.4555 201.772 18.4515 205.442 19.9563C206.001 20.1855 206.565 20.4065 207.147 20.5666L292.605 44.0582C294.688 44.6306 296.172 46.4721 296.272 48.6293C296.757 59.1066 296.999 72.7148 291.957 75.1814L207.956 116.276C203.696 118.359 198.704 118.316 194.482 116.159L111.417 73.7167C106.6 71.2552 106.959 57.0076 107.038 47.4038C107.057 45.1138 108.587 43.0942 110.799 42.4995L192.181 20.6113Z" fill="url(#paint0_linear_3_80)"/>
<path d="M193.112 1.53077C197.261 -0.497812 202.112 -0.51081 206.272 1.49552L291.919 42.8007C297.582 45.5316 297.605 53.5884 291.957 56.351L207.956 97.4453C203.696 99.529 198.704 99.4856 194.482 97.3281L111.417 54.8863C105.889 52.0619 105.959 44.1386 111.536 41.4122L193.112 1.53077Z" fill="url(#paint1_linear_3_80)"/>
<path d="M303.19 118.611C303.808 118.445 304.406 118.21 304.998 117.966C308.663 116.456 312.781 116.451 316.45 117.956C317.009 118.186 317.573 118.406 318.155 118.567L403.614 142.058C405.696 142.631 407.18 144.472 407.28 146.629C407.766 157.107 408.007 170.715 402.965 173.181L318.964 214.276C314.704 216.359 309.712 216.316 305.49 214.159L222.425 171.717C217.608 169.255 217.967 155.008 218.047 145.404C218.065 143.114 219.595 141.094 221.807 140.499L303.19 118.611Z" fill="url(#paint2_linear_3_80)"/>
<path d="M304.12 99.5308C308.269 97.5022 313.12 97.4892 317.28 99.4955L402.928 140.801C408.59 143.532 408.613 151.588 402.966 154.351L318.964 195.445C314.705 197.529 309.713 197.486 305.49 195.328L222.425 152.886C216.898 150.062 216.967 142.139 222.544 139.412L304.12 99.5308Z" fill="url(#paint3_linear_3_80)"/>
<path d="M85.1815 118.611C85.8 118.445 86.3973 118.21 86.9894 117.966C90.6552 116.456 94.7725 116.451 98.4422 117.956C99.0011 118.186 99.5645 118.406 100.147 118.567L185.605 142.058C187.688 142.631 189.172 144.472 189.272 146.629C189.757 157.107 189.999 170.715 184.957 173.181L100.956 214.276C96.6961 216.359 91.7041 216.316 87.4815 214.159L4.41717 171.717C-0.400247 169.255 -0.041127 155.008 0.0382388 145.404C0.0571632 143.114 1.58713 141.094 3.79859 140.499L85.1815 118.611Z" fill="url(#paint4_linear_3_80)"/>
<path d="M86.1115 99.5308C90.2609 97.5022 95.1116 97.4892 99.2718 99.4955L184.919 140.801C190.582 143.532 190.605 151.588 184.957 154.351L100.956 195.445C96.6964 197.529 91.7044 197.486 87.4818 195.328L4.41708 152.886C-1.11071 150.062 -1.0408 142.139 4.53597 139.412L86.1115 99.5308Z" fill="url(#paint5_linear_3_80)"/>
<defs>
<linearGradient id="paint0_linear_3_80" x1="107.038" y1="54.056" x2="296.848" y2="54.056" gradientUnits="userSpaceOnUse">
<stop stop-color="#D9F3FF"/>
<stop offset="0.445" stop-color="#DAF1FD"/>
<stop offset="0.57" stop-color="#8ED8FC"/>
<stop offset="1" stop-color="#80D5FD"/>
</linearGradient>
<linearGradient id="paint1_linear_3_80" x1="201.746" y1="0" x2="201.746" y2="98.9777" gradientUnits="userSpaceOnUse">
<stop stop-color="#FDFDFD"/>
<stop offset="1" stop-color="#FDFFFD"/>
</linearGradient>
<linearGradient id="paint2_linear_3_80" x1="218.046" y1="152.056" x2="407.856" y2="152.056" gradientUnits="userSpaceOnUse">
<stop stop-color="#D9F3FF"/>
<stop offset="0.445" stop-color="#DAF1FD"/>
<stop offset="0.57" stop-color="#8ED8FC"/>
<stop offset="1" stop-color="#80D5FD"/>
</linearGradient>
<linearGradient id="paint3_linear_3_80" x1="312.754" y1="98" x2="312.754" y2="196.978" gradientUnits="userSpaceOnUse">
<stop stop-color="#FDFDFD"/>
<stop offset="1" stop-color="#FDFFFD"/>
</linearGradient>
<linearGradient id="paint4_linear_3_80" x1="0.0376071" y1="152.056" x2="189.848" y2="152.056" gradientUnits="userSpaceOnUse">
<stop stop-color="#D9F3FF"/>
<stop offset="0.445" stop-color="#DAF1FD"/>
<stop offset="0.57" stop-color="#8ED8FC"/>
<stop offset="1" stop-color="#80D5FD"/>
</linearGradient>
<linearGradient id="paint5_linear_3_80" x1="94.7458" y1="98" x2="94.7458" y2="196.978" gradientUnits="userSpaceOnUse">
<stop stop-color="#FDFDFD"/>
<stop offset="1" stop-color="#FDFFFD"/>
</linearGradient>
</defs>
</svg>
